<svg xmlns="http://www.w3.org/2000/svg" width="512" height="512" viewBox="0 0 512 512" role="img" aria-labelledby="title desc">
  <title id="title">ANTOLEX Music cover placeholder</title>
  <desc id="desc">Abstract mint waveform on a dark album cover</desc>
  <defs>
    <linearGradient id="mint" x1="116" y1="101" x2="400" y2="411" gradientUnits="userSpaceOnUse">
      <stop stop-color="#71FFD2"/>
      <stop offset="1" stop-color="#18CFA8"/>
    </linearGradient>
    <radialGradient id="surface" cx="0" cy="0" r="1" gradientTransform="translate(166 118) rotate(52) scale(512)" gradientUnits="userSpaceOnUse">
      <stop stop-color="#173C32"/>
      <stop offset=".55" stop-color="#0C1B17"/>
      <stop offset="1" stop-color="#070C0B"/>
    </radialGradient>
    <filter id="glow" x="52" y="76" width="408" height="364" filterUnits="userSpaceOnUse">
      <feGaussianBlur stdDeviation="16"/>
    </filter>
  </defs>
  <rect width="512" height="512" rx="72" fill="url(#surface)"/>
  <circle cx="256" cy="256" r="174" fill="none" stroke="#CFFFF0" stroke-opacity=".07" stroke-width="2"/>
  <circle cx="256" cy="256" r="132" fill="none" stroke="#CFFFF0" stroke-opacity=".06" stroke-width="2"/>
  <path d="M104 272c38 0 38-70 76-70s38 140 76 140 38-188 76-188 38 118 76 118" fill="none" stroke="#22DDB0" stroke-opacity=".2" stroke-width="34" stroke-linecap="round" filter="url(#glow)"/>
  <path d="M104 272c38 0 38-70 76-70s38 140 76 140 38-188 76-188 38 118 76 118" fill="none" stroke="url(#mint)" stroke-width="22" stroke-linecap="round"/>
  <circle cx="104" cy="272" r="11" fill="#71FFD2"/>
  <circle cx="408" cy="272" r="11" fill="#18CFA8"/>
</svg>
